# Blender 4.4.0
# www.blender.org
mtllib Tree_1.mtl
o PineTree_2
v 2.063480 0.005122 -0.128184
v 2.185381 0.003600 -0.039611
v 2.138819 0.004181 0.103703
v 1.988141 0.006063 0.103703
v 1.941579 0.006645 -0.039611
v 2.042473 0.182956 -0.111843
v 2.061909 0.436947 -0.096215
v 2.171809 0.435961 -0.047475
v 2.152054 0.181639 -0.032222
v 2.159420 0.436338 0.072113
v 2.110198 0.182142 0.096607
v 2.041862 0.437556 0.097281
v 1.974749 0.183769 0.096607
v 1.981597 0.437933 -0.006751
v 1.932893 0.184272 -0.032222
v 2.126572 1.327068 -0.226188
v 2.046991 1.988491 -0.001840
v 2.299949 1.326915 -0.014338
v 2.152050 1.324432 0.216020
v 1.887265 1.323051 0.146538
v 1.871519 1.324650 -0.126761
v 1.882830 0.410432 -0.435344
v 2.014362 0.935635 -0.204271
v 2.413776 0.387858 -0.297580
v 2.261393 0.927214 -0.140219
v 2.446807 0.384724 0.250357
v 2.276771 0.925403 0.114616
v 1.936274 0.405373 0.451236
v 2.039245 0.932713 0.208061
v 1.587716 0.421160 0.027450
v 1.877068 0.938980 0.010978
v 2.065401 0.824671 -0.374994
v 2.062284 1.349648 -0.163624
v 2.439393 0.832653 -0.128603
v 2.222694 1.355939 -0.057894
v 2.320575 0.834991 0.303236
v 2.171700 1.356031 0.127414
v 1.873149 0.828464 0.323737
v 1.979774 1.349800 0.136212
v 1.715443 0.822158 -0.095432
v 1.912151 1.345884 -0.043660
vn 0.0099 0.9999 -0.0021
vn -0.0125 -0.9999 -0.0000
vn -0.5878 0.0049 -0.8090
vn -0.5756 0.1904 -0.7953
vn -0.9495 -0.0592 0.3082
vn -0.9402 0.1498 0.3060
vn 0.0005 0.0399 0.9992
vn -0.0000 -0.0026 1.0000
vn 0.9385 0.1631 0.3043
vn 0.9398 -0.1525 0.3059
vn 0.5830 0.1423 -0.7999
vn 0.5878 0.0048 -0.8090
vn 0.7397 0.2943 -0.6052
vn 0.8021 0.2969 0.5182
vn -0.2459 0.2668 0.9318
vn -0.9678 0.2451 0.0572
vn -0.3527 0.2622 -0.8983
vn 0.0069 -1.0000 -0.0062
vn 0.2499 0.3368 -0.9078
vn 0.9564 0.2866 -0.0560
vn 0.3569 0.3328 0.8728
vn 0.0327 0.9995 0.0049
vn -0.6974 0.4085 0.5888
vn -0.7642 0.4112 -0.4969
vn -0.0416 -0.9991 -0.0030
vn 0.5162 0.3211 -0.7940
vn 0.9063 0.3425 0.2475
vn 0.0384 0.3293 0.9434
vn -0.0329 0.9994 -0.0094
vn -0.8937 0.3021 0.3317
vn -0.5974 0.2965 -0.7451
vn 0.0150 -0.9998 0.0094
vn -0.7401 0.0976 -0.6654
vn -0.9495 -0.0593 0.3082
vn -0.8434 0.2217 0.4894
vn 0.2096 0.0535 0.9763
vn 0.9922 -0.0709 0.1030
vn 0.5829 0.1424 -0.7999
vn 0.4033 -0.0860 -0.9110
vn 0.0070 -1.0000 -0.0064
vn 0.0069 -1.0000 -0.0064
vn 0.2472 0.3351 -0.9092
vn 0.9564 0.2868 -0.0557
vn 0.3543 0.3310 0.8746
vn 0.0327 0.9995 0.0051
vn 0.0326 0.9995 0.0053
vn -0.6987 0.4076 0.5879
vn -0.7662 0.4097 -0.4951
vn -0.0416 -0.9991 -0.0034
vn -0.0415 -0.9991 -0.0032
vn 0.5119 0.3235 -0.7958
vn 0.9062 0.3416 0.2492
vn 0.0324 0.3324 0.9426
vn -0.0328 0.9994 -0.0095
vn -0.0328 0.9994 -0.0097
vn -0.8941 0.3032 0.3295
vn -0.6003 0.2988 -0.7419
vn 0.0149 -0.9998 0.0096
vn 0.0150 -0.9998 0.0096
vt 0.710938 0.623417
vt 0.710938 0.520146
vt 0.710938 0.562595
vt 0.320256 0.223325
vt 0.320190 0.254184
vt 0.320257 0.223197
vt 0.320257 0.223146
vt 0.320257 0.223244
vt 0.320256 0.223355
vt 0.320296 0.205094
vt 0.320350 0.179764
vt 0.320348 0.180574
vt 0.320296 0.204717
vt 0.320350 0.179578
vt 0.320296 0.204954
vt 0.320349 0.180272
vt 0.320295 0.205240
vt 0.320297 0.204631
vt 0.320348 0.180887
vt 0.320307 0.199922
vt 0.320254 0.224583
vt 0.320306 0.200361
vt 0.320254 0.224620
vt 0.320306 0.200448
vt 0.320306 0.200063
vt 0.320254 0.224316
vt 0.320254 0.224455
vt 0.320307 0.199738
vt 0.320254 0.224395
s 0
usemtl TreeMaterial
f 12/1/1 10/1/1 8/1/1
f 2/2/2 4/2/2 5/2/2
f 5/2/3 6/3/3 1/2/3
f 14/1/4 6/3/4 15/3/4
f 13/3/5 5/2/5 4/2/5
f 13/3/6 14/1/6 15/3/6
f 11/3/7 4/2/7 3/2/7
f 11/3/8 12/1/8 13/3/8
f 9/3/9 3/2/9 2/2/9
f 9/3/10 10/1/10 11/3/10
f 1/2/11 9/3/11 2/2/11
f 7/1/12 9/3/12 6/3/12
f 16/4/13 17/5/13 18/6/13
f 18/6/14 17/5/14 19/7/14
f 19/7/15 17/5/15 20/8/15
f 20/8/16 17/5/16 21/9/16
f 21/9/17 17/5/17 16/4/17
f 18/6/18 20/8/18 21/9/18
f 23/10/19 24/11/19 22/12/19
f 25/13/20 26/14/20 24/11/20
f 26/14/21 29/15/21 28/16/21
f 31/17/22 29/15/22 27/18/22
f 28/16/23 31/17/23 30/19/23
f 31/17/24 22/12/24 30/19/24
f 26/14/25 28/16/25 30/19/25
f 32/20/26 35/21/26 34/22/26
f 34/22/27 37/23/27 36/24/27
f 37/23/28 38/25/28 36/24/28
f 41/26/29 39/27/29 37/23/29
f 39/27/30 40/28/30 38/25/30
f 40/28/31 33/29/31 32/20/31
f 36/24/32 38/25/32 40/28/32
f 7/1/1 14/1/1 8/1/1
f 14/1/1 12/1/1 8/1/1
f 5/2/2 1/2/2 2/2/2
f 2/2/2 3/2/2 4/2/2
f 5/2/3 15/3/3 6/3/3
f 14/1/33 7/1/33 6/3/33
f 13/3/34 15/3/34 5/2/34
f 13/3/35 12/1/35 14/1/35
f 11/3/7 13/3/7 4/2/7
f 11/3/36 10/1/36 12/1/36
f 9/3/9 11/3/9 3/2/9
f 9/3/37 8/1/37 10/1/37
f 1/2/38 6/3/38 9/3/38
f 7/1/39 8/1/39 9/3/39
f 21/9/40 16/4/40 18/6/40
f 18/6/41 19/7/41 20/8/41
f 23/10/42 25/13/42 24/11/42
f 25/13/43 27/18/43 26/14/43
f 26/14/44 27/18/44 29/15/44
f 27/18/45 25/13/45 23/10/45
f 23/10/46 31/17/46 27/18/46
f 28/16/47 29/15/47 31/17/47
f 31/17/48 23/10/48 22/12/48
f 30/19/49 22/12/49 24/11/49
f 24/11/50 26/14/50 30/19/50
f 32/20/51 33/29/51 35/21/51
f 34/22/52 35/21/52 37/23/52
f 37/23/53 39/27/53 38/25/53
f 37/23/54 35/21/54 41/26/54
f 35/21/55 33/29/55 41/26/55
f 39/27/56 41/26/56 40/28/56
f 40/28/57 41/26/57 33/29/57
f 40/28/58 32/20/58 36/24/58
f 32/20/59 34/22/59 36/24/59
